# xmcd
#
# Track frame offsets:
#	300
#	13436
#	32467
#	55174
#	74572
#	87034
#	108975
#	123449
#	140270
#	163218
#	185876
#	217949
#	237995
#	260672
#	280454
#	296856
#	313448
#	330261
#	344000
#
# Disc length: 4836 seconds
#
# Revision: 0
# Processed by: cddbd v1.5.2PL0 Copyright (c) Steve Scherf et al.
# Submitted via: dBpowerAMP V4.0
#
DISCID=3512e013
DTITLE=Eric Clapton - The Cream Of Clapton
DYEAR=1900
DGENRE=
TTITLE0=I feel Free
TTITLE1=sunshine of your love
TTITLE2=white room
TTITLE3=crossroads
TTITLE4=badge
TTITLE5=presence of the lord
TTITLE6=blues power
TTITLE7=after midnight
TTITLE8=let it rain
TTITLE9=bell bottom blues
TTITLE10=layla
TTITLE11=i shot the sherriff
TTITLE12=let it grow
TTITLE13=knockin on heavens door
TTITLE14=hello old friend
TTITLE15=cocaine
TTITLE16=wonderful tonight
TTITLE17=promises
TTITLE18=i can't stand it
EXTD=bob ives
EXTT0=
EXTT1=
EXTT2=
EXTT3=
EXTT4=
EXTT5=
EXTT6=
EXTT7=
EXTT8=
EXTT9=
EXTT10=
EXTT11=
EXTT12=
EXTT13=
EXTT14=
EXTT15=
EXTT16=
EXTT17=
EXTT18=
PLAYORDER=
